<svg height="496pt" viewBox="0 -36 496 496" width="496pt" xmlns="http://www.w3.org/2000/svg"><path d="m352 224c0 57.4375-46.5625 104-104 104s-104-46.5625-104-104 46.5625-104 104-104 104 46.5625 104 104zm0 0" fill="#fcd770"/><path d="m352 224c0 57.4375-46.5625 104-104 104s-104-46.5625-104-104 46.5625-104 104-104 104 46.5625 104 104zm0 0" fill="#fcd770"/><path d="m200 240h-.800781c-3.199219-16-15.199219-28-31.199219-31.199219v-.800781c0-12-5.601562-22.398438-13.601562-29.601562-6.398438 13.601562-10.398438 29.601562-10.398438 45.601562 0 42.398438 25.601562 79.199219 62.398438 95.199219 19.203124-3.199219 33.601562-19.199219 33.601562-39.199219 0-22.398438-17.601562-40-40-40zm0 0" fill="#ffc729"/><path d="m166.398438 288c4.800781 5.601562 9.601562 11.199219 15.203124 16h132.796876c5.601562-4.800781 11.203124-10.398438 15.203124-16zm0 0" fill="#ffc729"/><path d="m80 376h336v40h-336zm0 0" fill="#dfb28b"/><path d="m80 376h336v24h-336zm0 0" fill="#cf9e76"/><path d="m176 304h312c0 44-36 80-80 80h-320c-44 0-80-36-80-80zm0 0" fill="#dfb28b"/><path d="m104 344c11.199219 0 21.601562-4.800781 29.601562-12.800781 5.597657 3.199219 12 4.800781 18.398438 4.800781 14.398438 0 26.398438-7.199219 33.601562-18.398438 4.796876 1.597657 9.597657 2.398438 14.398438 2.398438 12.800781 0 24.800781-6.398438 32-16h-168c0 22.398438 17.601562 40 40 40zm0 0" fill="#cf9e76"/><g fill="#ec87c0"><path d="m224 280c0 13.253906-10.746094 24-24 24s-24-10.746094-24-24 10.746094-24 24-24 24 10.746094 24 24zm0 0"/><path d="m176 296c0 13.253906-10.746094 24-24 24s-24-10.746094-24-24 10.746094-24 24-24 24 10.746094 24 24zm0 0"/><path d="m184 248c0 13.253906-10.746094 24-24 24s-24-10.746094-24-24 10.746094-24 24-24 24 10.746094 24 24zm0 0"/><path d="m128 304c0 13.253906-10.746094 24-24 24s-24-10.746094-24-24 10.746094-24 24-24 24 10.746094 24 24zm0 0"/><path d="m136 256c0 13.253906-10.746094 24-24 24s-24-10.746094-24-24 10.746094-24 24-24 24 10.746094 24 24zm0 0"/><path d="m152 208c0 13.253906-10.746094 24-24 24s-24-10.746094-24-24 10.746094-24 24-24 24 10.746094 24 24zm0 0"/><path d="m88 272c0 13.253906-10.746094 24-24 24s-24-10.746094-24-24 10.746094-24 24-24 24 10.746094 24 24zm0 0"/><path d="m104 216c0 13.253906-10.746094 24-24 24s-24-10.746094-24-24 10.746094-24 24-24 24 10.746094 24 24zm0 0"/><path d="m56 232c0 13.253906-10.746094 24-24 24s-24-10.746094-24-24 10.746094-24 24-24 24 10.746094 24 24zm0 0"/></g><path d="m56 216-20-20c-17.601562-17.601562-28-42.398438-28-68h32c0 26.398438 4.800781 52.800781 15.199219 76.800781l.800781 3.199219zm0 0" fill="#cf9e76"/><path d="m352 224c0-26.398438-9.601562-49.601562-25.601562-68l-57.597657 109.601562 6.398438 8c.800781.796876 14.402343 16.796876 39.199219 29.597657 23.203124-18.398438 37.601562-47.199219 37.601562-79.199219zm0 0" fill="#ffc729"/><path d="m480 264s-32 40-96 40-96-40-96-40l84-160.800781c2.398438-4 6.398438-7.199219 12-7.199219 4.800781 0 9.601562 2.398438 12 7.199219zm0 0" fill="#a0d468"/><path d="m396 103.199219c-2.398438-4.800781-7.199219-7.199219-12-7.199219s-9.601562 2.398438-12 7.199219l-68.800781 132 .800781 1.601562c15.199219 16 42.398438 36 80 36s64.800781-20 80-36l.800781-.800781zm0 0" fill="#fc6e51"/><path d="m256 88h-16c-44 0-80-36-80-80h16c44 0 80 36 80 80zm0 0" fill="#a0d468"/><path d="m319.199219 288c16 8.800781 37.601562 16 64.800781 16s49.601562-7.199219 64.800781-16zm0 0" fill="#8cc152"/><path d="m451.199219 296c22.402343-12 34.402343-25.601562 35.199219-27.199219l3.203124-4-87.203124-165.601562c-3.199219-7.199219-10.398438-11.199219-18.398438-11.199219s-15.199219 4-18.398438 11.199219l-29.601562 56c-19.199219-24-46.398438-39.199219-76.800781-42.398438.800781-5.601562 2.402343-11.199219 4-16.800781l1.601562-4.800781c7.199219-25.597657 20.800781-49.597657 38.398438-70.398438l-12-10.402343c-12.800781 14.402343-23.199219 31.203124-31.199219 48-12.800781-33.597657-45.601562-58.398438-84-58.398438h-24v8c0 48.800781 39.199219 88 88 88h6.398438c-1.597657 5.601562-2.398438 10.398438-3.199219 16-43.199219 2.398438-81.597657 28.800781-98.398438 68.800781-4.800781-3.199219-10.402343-4.800781-16.800781-4.800781-12 0-21.601562 6.398438-27.199219 16-5.601562-4.800781-12.800781-8-20.800781-8-2.398438 0-4.800781 0-6.398438.800781.796876-8.800781 3.199219-16.800781 6.398438-24.800781 4 4.800781 10.398438 8 17.601562 8 12.796876 0 23.199219-10.398438 23.199219-23.199219v-2.402343c0-12.796876-10.402343-23.199219-24-23.199219-6.402343 0-12 2.402343-16 6.402343-5.601562-12.800781-8.800781-27.203124-8.800781-41.601562v-12h-16v12.800781c0 19.199219 4.800781 38.398438 12.800781 55.199219l1.597657 2.398438c-7.199219 13.601562-12 28.800781-13.597657 44-5.601562-19.199219-8.800781-38.398438-8.800781-58.398438v-8h-48v8c0 27.199219 10.398438 52.800781 28.800781 72-16 1.601562-28.800781 15.199219-28.800781 32 0 17.601562 14.398438 32 32 32h.800781c0 2.398438-.800781 4.800781-.800781 8 0 9.601562 4 18.398438 11.199219 24h-43.199219v8c0 43.199219 31.199219 79.199219 72 86.398438v33.601562h352v-33.601562c40.800781-7.199219 72-43.199219 72-86.398438v-8zm-360.800781-156.800781c1.601562-2.398438 3.203124-3.199219 6.402343-3.199219 4 0 7.199219 3.199219 7.199219 7.199219v2.402343c0 4-3.199219 7.199219-7.199219 7.199219-2.402343 0-4.800781-1.601562-6.402343-4l-2.398438-5.601562zm380 123.199219c-9.597657 9.601562-38.398438 33.601562-86.398438 33.601562s-76.800781-24-86.398438-33.601562l7.199219-14.398438c17.597657 16 44 32 79.199219 32s61.601562-16 79.199219-31.199219zm-91.199219-156c1.601562-3.199219 7.199219-3.199219 9.601562 0l66.398438 127.203124c-15.199219 14.398438-38.398438 30.398438-71.199219 30.398438s-56-16-71.199219-30.398438zm-139.199219-26.398438c-36.800781 0-67.199219-28-71.199219-64h7.199219c36.800781 0 67.199219 28 71.199219 64zm.800781 48c-.800781 6.398438-.800781 12-.800781 17.601562v12c-5.601562-3.203124-8.800781-9.601562-8.800781-9.601562l-14.398438 7.199219c.800781.800781 10.398438 20.800781 31.199219 20.800781s30.398438-19.199219 31.199219-20.800781l-14.398438-7.199219s-3.199219 5.601562-8.800781 9.601562v-12c0-5.601562 0-11.203124.800781-16.800781 28.800781 2.398438 54.398438 17.597657 71.199219 42.398438l-49.601562 94.402343 3.203124 4c.796876.796876 12.796876 15.199219 35.199219 27.199219h-89.601562c2.402343-4.800781 4.800781-10.402343 4.800781-16 0-17.601562-14.398438-32-32-32-3.199219 0-5.601562.800781-8 .800781v-.800781c0-17.601562-14.398438-32-32-32h-.800781c.800781-2.402343.800781-5.601562.800781-8 0-4.800781-1.601562-9.601562-3.199219-13.601562 12-37.597657 45.597657-64 84-67.199219zm-24.800781 152c0 8.800781-7.199219 16-16 16s-16-7.199219-16-16 7.199219-16 16-16 16 7.199219 16 16zm-56-48c8.800781 0 16 7.199219 16 16s-7.199219 16-16 16-16-7.199219-16-16 7.199219-16 16-16zm8 64c0 8.800781-7.199219 16-16 16s-16-7.199219-16-16 7.199219-16 16-16 16 7.199219 16 16zm-40-104c8.800781 0 16 7.199219 16 16s-7.199219 16-16 16-16-7.199219-16-16 7.199219-16 16-16zm-16 48c8.800781 0 16 7.199219 16 16s-7.199219 16-16 16-16-7.199219-16-16 7.199219-16 16-16zm8 64c0 8.800781-7.199219 16-16 16s-16-7.199219-16-16 7.199219-16 16-16 16 7.199219 16 16zm-40-104c8.800781 0 16 7.199219 16 16s-7.199219 16-16 16-16-7.199219-16-16 7.199219-16 16-16zm-16 56c8.800781 0 16 7.199219 16 16s-7.199219 16-16 16-16-7.199219-16-16 7.199219-16 16-16zm-48-120h16c.800781 18.398438 4 36 8.800781 53.601562-14.402343-14.402343-22.402343-33.601562-24.800781-53.601562zm16 112c-8.800781 0-16-7.199219-16-16s7.199219-16 16-16 16 7.199219 16 16-7.199219 16-16 16zm376 128h-32v16h32v16h-320v-16h272v-16h-272c-36.800781 0-67.199219-28-71.199219-64h56.800781c3.199219 13.601562 16 24 31.199219 24 12 0 21.597657-6.398438 27.199219-16 5.601562 4.800781 12.800781 8 20.800781 8 12 0 22.398438-6.398438 27.199219-16h300c-4.800781 36-35.199219 64-72 64zm0 0"/><path d="m376 160h16v16h-16zm0 0"/><path d="m416 216h16v16h-16zm0 0"/><path d="m336 216h16v16h-16zm0 0"/></svg>